<?xml version="1.0" encoding="UTF-8"?><svg id="Capa_2" xmlns="http://www.w3.org/2000/svg" viewBox="0 0 1558.35 588.88"><defs><style>.cls-1{fill:#ff3167;}</style></defs><g id="Capa_1-2"><path class="cls-1" d="M134,30.99c4.56-19.14,14.58-30.99,36.46-30.99,30.99,0,45.58,27.35,45.58,68.37v419.32h-62.9V68.37c0-4.56-1.82-5.47-7.29-5.47s-6.38.91-6.38,5.47v419.32h-62.9V68.37c0-4.56-1.82-5.47-7.29-5.47s-6.38.91-6.38,5.47v419.32H0V2.73h51.05l5.47,31.91C61.08,12.76,70.19,0,93.89,0c20.05,0,32.82,11.85,40.11,30.99Z"/><path class="cls-1" d="M290.78,2.73v484.96h-62.9V2.73h62.9Z"/><path class="cls-1" d="M442.09,68.37v156.79h-62.9V68.37c0-4.56-1.82-5.47-7.29-5.47s-6.38.91-6.38,5.47v354.6c0,3.65.91,5.47,6.38,5.47s7.29-1.82,7.29-5.47v-186.87h62.9v186.87c0,50.14-20.97,68.37-70.19,68.37s-69.28-18.23-69.28-68.37V68.37c0-50.14,20.97-68.37,69.28-68.37s70.19,18.23,70.19,68.37Z"/><path class="cls-1" d="M593.41,68.37v419.32h-54.69l-3.65-25.52c-4.56,18.23-14.58,29.17-35.55,29.17-30.99,0-45.58-27.35-45.58-68.37v-167.73c0-41.02,14.58-68.37,45.58-68.37,15.5,0,25.52,6.38,30.99,16.41V68.37c0-4.56-1.82-5.47-7.29-5.47s-6.38.91-6.38,5.47v112.12h-62.9v-112.12c0-50.14,20.97-68.37,69.28-68.37s70.19,18.23,70.19,68.37ZM516.83,255.24v167.73c0,3.65.91,5.47,6.38,5.47s7.29-1.82,7.29-5.47v-167.73c0-3.65-1.82-5.47-7.29-5.47s-6.38,1.82-6.38,5.47Z"/><path class="cls-1" d="M953.1,2.73v206.02c-.91,48.31-21.88,66.54-70.19,66.54-4.56,0-6.38.91-6.38,4.56v145.85h13.67v-143.12h62.9v205.1h-139.47v-208.75c.91-48.31,20.97-66.54,69.28-66.54,5.47,0,7.29-1.82,7.29-5.47V65.63h-13.67v139.47h-62.9V2.73h139.47Z"/><path class="cls-1" d="M1104.42,68.37v419.32h-54.69l-3.65-25.52c-4.56,18.23-14.58,29.17-35.55,29.17-30.99,0-45.58-27.35-45.58-68.37v-167.73c0-41.02,14.58-68.37,45.58-68.37,15.5,0,25.52,6.38,30.99,16.41V68.37c0-4.56-1.82-5.47-7.29-5.47s-6.38.91-6.38,5.47v112.12h-62.9v-112.12c0-50.14,20.97-68.37,69.28-68.37s70.19,18.23,70.19,68.37ZM1027.84,255.24v167.73c0,3.65.91,5.47,6.38,5.47s7.29-1.82,7.29-5.47v-167.73c0-3.65-1.82-5.47-7.29-5.47s-6.38,1.82-6.38,5.47Z"/><path class="cls-1" d="M1179.16,2.73v420.24c0,3.65.91,5.47,6.38,5.47s7.29-.91,7.29-5.47V2.73h62.9v517.77c0,50.14-20.97,68.37-70.19,68.37s-69.28-18.23-69.28-68.37v-23.7h62.9v23.7c0,3.65.91,5.47,6.38,5.47s7.29-1.82,7.29-5.47v-45.58c-5.47,10.94-15.5,16.41-30.99,16.41-30.99,0-45.58-27.35-45.58-68.37V2.73h62.9Z"/><path class="cls-1" d="M1407.04,68.37v419.32h-54.69l-3.65-25.52c-4.56,18.23-14.58,29.17-35.55,29.17-30.99,0-45.58-27.35-45.58-68.37v-167.73c0-41.02,14.58-68.37,45.58-68.37,15.5,0,25.52,6.38,30.99,16.41V68.37c0-4.56-1.82-5.47-7.29-5.47s-6.38.91-6.38,5.47v112.12h-62.9v-112.12c0-50.14,20.97-68.37,69.28-68.37s70.19,18.23,70.19,68.37ZM1330.47,255.24v167.73c0,3.65.91,5.47,6.38,5.47s7.29-1.82,7.29-5.47v-167.73c0-3.65-1.82-5.47-7.29-5.47s-6.38,1.82-6.38,5.47Z"/><path class="cls-1" d="M1558.35,68.37v135.82h-62.9V68.37c0-4.56-1.82-5.47-7.29-5.47s-6.38.91-6.38,5.47v139.47c0,3.65.91,5.47,6.38,5.47,49.23,0,70.19,18.23,70.19,68.37v141.29c0,50.14-20.97,68.37-70.19,68.37s-69.28-18.23-69.28-68.37v-139.47h62.9v139.47c0,3.65.91,5.47,6.38,5.47s7.29-1.82,7.29-5.47v-141.29c0-3.65-1.82-5.47-7.29-5.47-48.31,0-69.28-18.23-69.28-68.37V68.37c0-50.14,20.97-68.37,69.28-68.37s70.19,18.23,70.19,68.37Z"/></g></svg>